# xmcd
#
# Track frame offsets: 
#        150
#        16534
#        32881
#        44908
#        61884
#        72973
#        86501
#        99286
#        116728
#        132160
#        144269
#        159678
#
# Disc length: 2157 seconds
#
# Revision: 0
# Processed by: cddbd v1.5.2PL0 Copyright (c) Steve Scherf et al.
# Submitted via: ExactAudioCopy v0.99pb5
#
DISCID=9d086b0c
DTITLE=Rhonda Vincent - One Step Ahead
DYEAR=2003
DGENRE=Bluegrass
TTITLE0=Kentucky Borderline
TTITLE1=You Can't Take It With You When You Go
TTITLE2=One Step Ahead of the Blues
TTITLE3=Caught in the Crossfire
TTITLE4=Ridin' the Red Line
TTITLE5=Pathway of Teardrops
TTITLE6=An Old Memory Found It's Way Back
TTITLE7=Missouri Moon
TTITLE8=Walking My Lord Up Calvary's Hill
TTITLE9=Fishers of Men
TTITLE10=Frankie Belle
TTITLE11=The Martha White Song
EXTD=
EXTT0=
EXTT1=
EXTT2=
EXTT3=
EXTT4=
EXTT5=
EXTT6=
EXTT7=
EXTT8=
EXTT9=
EXTT10=
EXTT11=
PLAYORDER=
